<svg xmlns="http://www.w3.org/2000/svg" viewBox="0 0 900 247.33"><defs><style>.cls-1{fill:#13487e;}.cls-2{fill:#808589;}.cls-3{fill:#f47a27;}</style></defs><title>altimetry-logo</title><g id="Layer_2" data-name="Layer 2"><g id="Layer_1-2" data-name="Layer 1"><path class="cls-1" d="M161.5,29.67h30.84V185.14H161.5Z"/><path class="cls-1" d="M280.71,109.87H253.56v33.31a61.48,61.48,0,0,0,.41,7.51,15.2,15.2,0,0,0,1.85,5.86,9.37,9.37,0,0,0,4.42,3.81,19.66,19.66,0,0,0,7.92,1.33,54,54,0,0,0,6.48-.51,11,11,0,0,0,6.07-2.37v25.71A46.92,46.92,0,0,1,270,187a98.87,98.87,0,0,1-10.9.61A59.55,59.55,0,0,1,244.72,186a32.88,32.88,0,0,1-11.52-5.25,24.45,24.45,0,0,1-7.71-9.35,32,32,0,0,1-2.78-14v-47.5H203V85.19h19.74V55.58h30.85V85.19h27.15Z"/><rect class="cls-1" x="295.49" y="85.19" width="30.84" height="99.94"/><path class="cls-1" d="M346.08,85.19h29.61V98.77h.41A25.07,25.07,0,0,1,380.21,93a30.47,30.47,0,0,1,6.38-5.15,36.9,36.9,0,0,1,8.43-3.7,35.48,35.48,0,0,1,10.28-1.43A39,39,0,0,1,423.91,87a27.38,27.38,0,0,1,12.24,13.58q5.34-9.68,13-13.78t18.72-4.11q10.06,0,17,3.39a27.67,27.67,0,0,1,10.89,9.25,39,39,0,0,1,5.76,13.78,78.3,78.3,0,0,1,1.75,17v59H472.34v-58.2a23.19,23.19,0,0,0-3-12q-3-5-10.59-5a20.48,20.48,0,0,0-8.95,1.75,14.63,14.63,0,0,0-5.75,4.83,20.2,20.2,0,0,0-3.09,7.2,39,39,0,0,0-.92,8.63v52.86H409.21V132.28c0-1.77-.07-4-.21-6.58a26.12,26.12,0,0,0-1.43-7.4,14.13,14.13,0,0,0-4-6q-2.78-2.48-8.12-2.47a19.05,19.05,0,0,0-9.67,2.16,14.74,14.74,0,0,0-5.65,5.76,23.59,23.59,0,0,0-2.57,8.12,70.25,70.25,0,0,0-.62,9.46v49.77H346.08Z"/><path class="cls-1" d="M611.15,167.86a49.06,49.06,0,0,1-18.71,14.6A56,56,0,0,1,569,187.6a63,63,0,0,1-21.7-3.7,52,52,0,0,1-17.68-10.59,49.64,49.64,0,0,1-11.83-16.55,52.34,52.34,0,0,1-4.32-21.6,52.36,52.36,0,0,1,4.32-21.59A49.64,49.64,0,0,1,529.62,97,52,52,0,0,1,547.3,86.43a63,63,0,0,1,21.7-3.7,49.3,49.3,0,0,1,19.43,3.7A40.32,40.32,0,0,1,603.24,97a48.4,48.4,0,0,1,9.36,16.55,66.84,66.84,0,0,1,3.29,21.59v9.67H544.32a24.41,24.41,0,0,0,8,14.09,22.7,22.7,0,0,0,15.22,5.24,23.17,23.17,0,0,0,12.85-3.39,34.46,34.46,0,0,0,9.15-8.74Zm-26.11-44a17.9,17.9,0,0,0-5.14-13.36,18.31,18.31,0,0,0-13.78-5.56,23.12,23.12,0,0,0-9,1.65,22.66,22.66,0,0,0-6.68,4.22,18.49,18.49,0,0,0-4.32,6,19.66,19.66,0,0,0-1.75,7.09Z"/><path class="cls-1" d="M696.91,109.87H669.76v33.31a63.55,63.55,0,0,0,.41,7.51,15.2,15.2,0,0,0,1.85,5.86,9.42,9.42,0,0,0,4.42,3.81,19.66,19.66,0,0,0,7.92,1.33,53.65,53.65,0,0,0,6.48-.51,11,11,0,0,0,6.07-2.37v25.71a46.79,46.79,0,0,1-10.7,2.47,98.87,98.87,0,0,1-10.9.61A59.55,59.55,0,0,1,660.92,186a32.88,32.88,0,0,1-11.52-5.25,24.45,24.45,0,0,1-7.71-9.35,32,32,0,0,1-2.78-14v-47.5H619.17V85.19h19.74V55.58h30.85V85.19h27.15Z"/><path class="cls-1" d="M712.27,85.19h30.84v16h.41q5-9.26,11.73-13.88t17.07-4.62c1.78,0,3.56.07,5.34.2a26.94,26.94,0,0,1,4.94.82v28.18a47.46,47.46,0,0,0-6.48-1.55,42.28,42.28,0,0,0-6.68-.51q-8.85,0-14,2.47a18.54,18.54,0,0,0-7.91,6.89,25.89,25.89,0,0,0-3.6,10.59,102.66,102.66,0,0,0-.83,13.57v41.75H712.27Z"/><path class="cls-1" d="M854.76,201.38q-3.09,8-6,14.19a34.2,34.2,0,0,1-7.3,10.39,28.43,28.43,0,0,1-11.21,6.37q-6.78,2.16-17.89,2.16a72.27,72.27,0,0,1-23-3.7l4.12-25.29a35.37,35.37,0,0,0,14.39,3.08,26.46,26.46,0,0,0,8.43-1.13,14.1,14.1,0,0,0,5.45-3.29,18.22,18.22,0,0,0,3.6-5.25q1.44-3.07,3.08-7.19L830.7,186,786.9,85.19h33.31l25.7,66h.41l22-66H900Z"/><path class="cls-1" d="M90.13,39.54H63.6L.68,185.14H36.05l12.13-30.85h56.56l12.54,30.85h36.19Zm-31.87,87.6L76,81.9l17.88,45.24Z"/><path class="cls-2" d="M26.09,217.18A15.63,15.63,0,0,1,25,223.27a12.1,12.1,0,0,1-2.86,4.24A11.59,11.59,0,0,1,18.09,230a13.6,13.6,0,0,1-4.6.81H9.37v15.4H0V203.93H13.13a16.87,16.87,0,0,1,4.57.65,11.87,11.87,0,0,1,4.18,2.18,11,11,0,0,1,3,4.09A15.23,15.23,0,0,1,26.09,217.18Zm-9,.18a5.37,5.37,0,0,0-1.37-4.12A4.77,4.77,0,0,0,12.42,212H9.37V223h3.05a4.43,4.43,0,0,0,3.34-1.46A6,6,0,0,0,17.13,217.36Z"/><path class="cls-2" d="M62.64,224.94a34.5,34.5,0,0,1-1.14,9.16,22,22,0,0,1-3.22,7.08,14.7,14.7,0,0,1-5.1,4.53,15,15,0,0,1-13.55,0,14.82,14.82,0,0,1-5.11-4.53,22,22,0,0,1-3.22-7.08,37.65,37.65,0,0,1,0-18.27,21.28,21.28,0,0,1,3.19-7,14.68,14.68,0,0,1,5.11-4.48,14.58,14.58,0,0,1,18.71,4.48,21.73,21.73,0,0,1,3.22,7A34,34,0,0,1,62.64,224.94Zm-9.79,0a29.08,29.08,0,0,0-.42-5.1,16.76,16.76,0,0,0-1.22-4.09,7.7,7.7,0,0,0-2-2.72,4.27,4.27,0,0,0-2.81-1,4.36,4.36,0,0,0-2.83,1,7.31,7.31,0,0,0-2,2.72,15.56,15.56,0,0,0-1.2,4.09,31.26,31.26,0,0,0-.39,5.1,31.82,31.82,0,0,0,.39,5.13,15.57,15.57,0,0,0,1.2,4.12,7.59,7.59,0,0,0,2,2.75,4.27,4.27,0,0,0,2.83,1,4.18,4.18,0,0,0,2.81-1,8,8,0,0,0,2-2.75,16.75,16.75,0,0,0,1.22-4.12A29.6,29.6,0,0,0,52.85,224.94Z"/><path class="cls-2" d="M103.79,246.19H93.64l-5.19-28.36h-.12l-5.14,28.36H73l-7.93-42.26h9.73l4.35,29.43h.24L84,203.93h9.25l4.78,29.43h.18l4.3-29.43h9.25Z"/><path class="cls-2" d="M116.41,246.19V203.93h20.41v8.41H125.54v8.3h10.39v7.88H125.54v9.07h12v8.6Z"/><path class="cls-2" d="M161.62,246.19,156,229.36h-2.79v16.83H144V203.93H157.5q6.12,0,9.53,3.19t3.39,9.52a15.31,15.31,0,0,1-.53,4.18,11.82,11.82,0,0,1-1.4,3.16,8.65,8.65,0,0,1-1.94,2.15,7.36,7.36,0,0,1-2.08,1.2l7.2,18.86Zm-.57-29a6.54,6.54,0,0,0-.45-2.63,4.48,4.48,0,0,0-1.16-1.61,3.91,3.91,0,0,0-1.58-.81,7.27,7.27,0,0,0-1.71-.21h-3v10.69H156a5.39,5.39,0,0,0,3.56-1.28A5.16,5.16,0,0,0,161.05,217.18Z"/><path class="cls-2" d="M176.75,246.19V203.93h20.41v8.41H185.88v8.3h10.39v7.88H185.88v9.07h12v8.6Z"/><path class="cls-2" d="M233.75,225.18a33.07,33.07,0,0,1-1.05,8.65,18.44,18.44,0,0,1-3.19,6.63,14.26,14.26,0,0,1-5.46,4.24,19.09,19.09,0,0,1-7.85,1.49H204.32V203.93H216.2a18.93,18.93,0,0,1,7.85,1.49,14,14,0,0,1,5.46,4.27,18.76,18.76,0,0,1,3.19,6.68A34.06,34.06,0,0,1,233.75,225.18Zm-9.61,0q0-6.39-2.18-9.64a6.57,6.57,0,0,0-5.64-3.26H214v25.55h2.33a6.56,6.56,0,0,0,5.64-3.25Q224.14,231.33,224.14,225.18Z"/><path class="cls-2" d="M280.19,234.13a13.19,13.19,0,0,1-1.1,5.7,10.21,10.21,0,0,1-2.9,3.7,11.27,11.27,0,0,1-4,2,16.53,16.53,0,0,1-4.51.63h-14V203.93h12.65a23.26,23.26,0,0,1,4.18.41,11.34,11.34,0,0,1,4,1.59,9.21,9.21,0,0,1,3,3.31,11.07,11.07,0,0,1,1.23,5.55,10.54,10.54,0,0,1-1.52,6A9.05,9.05,0,0,1,273.5,224v.12a7.91,7.91,0,0,1,2.39,1.08,8.8,8.8,0,0,1,2.15,2,10,10,0,0,1,1.55,2.95A12,12,0,0,1,280.19,234.13Zm-9.85-17.82a4.07,4.07,0,0,0-1.37-3.48,5.27,5.27,0,0,0-3.23-1h-3.22V221h3.28a5,5,0,0,0,3.14-1.08A4.29,4.29,0,0,0,270.34,216.31Zm.78,17a5.86,5.86,0,0,0-.45-2.43,4.64,4.64,0,0,0-1.2-1.63,4.82,4.82,0,0,0-1.67-.93A5.83,5.83,0,0,0,266,228h-3.46v10.33h3.58a5.25,5.25,0,0,0,3.55-1.26A4.71,4.71,0,0,0,271.12,233.27Z"/><path class="cls-2" d="M301.37,231v15.22H292V231l-10.69-27h10.33l5.07,17.49h.12L302,203.93h10.14Z"/><path class="cls-2" d="M347.75,246.19H335.64l-10.21-42.26h10.8L342,234.85h.12l5.67-30.92h10.39Z"/><path class="cls-2" d="M379.63,246.19l-1.73-7.7h-9.49l-1.73,7.7h-9.55l10.26-42.26h12l10.21,42.26Zm-6.33-33.07h-.24l-3.58,18h7.23Z"/><path class="cls-2" d="M394,246.19V203.93h9.67v33.43h11.28v8.83Z"/><path class="cls-2" d="M419.6,246.19V203.93H440v8.41H428.74v8.3h10.38v7.88H428.74v9.07h12v8.6Z"/><path class="cls-2" d="M465.44,246.19l-9.79-25.73h-.18l.24,25.73h-8.54V203.93h10.51L467.41,230h.18l-.18-26.08h8.24v42.26Z"/><path class="cls-2" d="M501,214a7.61,7.61,0,0,0-2.51-1.94,6.91,6.91,0,0,0-3-.68,4.61,4.61,0,0,0-2.9,1,4,4,0,0,0-1.28,3.35,3.81,3.81,0,0,0,1.31,3.08,20.91,20.91,0,0,0,3.88,2.42c1,.48,2,1.05,3,1.71a13.87,13.87,0,0,1,2.91,2.42,12.22,12.22,0,0,1,2.2,3.44,11.85,11.85,0,0,1,.87,4.75,15.53,15.53,0,0,1-1.08,6,12.17,12.17,0,0,1-2.92,4.31,12.36,12.36,0,0,1-4.23,2.57,14.43,14.43,0,0,1-5,.87,16.48,16.48,0,0,1-7-1.44,17,17,0,0,1-5-3.34l4.89-7.16a11,11,0,0,0,3.16,2.29,8.29,8.29,0,0,0,3.65.87,4.09,4.09,0,0,0,2.92-1.13,4.17,4.17,0,0,0,1.2-3.17,4.11,4.11,0,0,0-1.44-3.31,21,21,0,0,0-4.18-2.6,26.32,26.32,0,0,1-3.25-1.85A12,12,0,0,1,484.6,224a10.78,10.78,0,0,1-1.83-3.34,14.23,14.23,0,0,1-.65-4.54,14.59,14.59,0,0,1,1.16-6.06,11.82,11.82,0,0,1,3.05-4.14,12.38,12.38,0,0,1,4.18-2.39,14.27,14.27,0,0,1,4.62-.78,16.25,16.25,0,0,1,6.21,1.13,13.15,13.15,0,0,1,4.6,3.08Z"/><path class="cls-2" d="M542.74,246.19l-5.65-16.83h-2.8v16.83H525.1V203.93h13.52q6.14,0,9.53,3.19t3.39,9.52a14.93,14.93,0,0,1-.53,4.18,11.51,11.51,0,0,1-1.4,3.16,8.82,8.82,0,0,1-1.93,2.15,7.54,7.54,0,0,1-2.09,1.2l7.21,18.86Zm-.57-29a6.74,6.74,0,0,0-.44-2.63,4.39,4.39,0,0,0-1.17-1.61,3.91,3.91,0,0,0-1.58-.81,7.25,7.25,0,0,0-1.7-.21h-3v10.69h2.81a5.38,5.38,0,0,0,3.55-1.28A5.13,5.13,0,0,0,542.17,217.18Z"/><path class="cls-2" d="M557.87,246.19V203.93h20.42v8.41H567v8.3h10.38v7.88H567v9.07h12v8.6Z"/><path class="cls-2" d="M603.47,214a7.71,7.71,0,0,0-2.51-1.94,6.91,6.91,0,0,0-3-.68,4.59,4.59,0,0,0-2.9,1,4,4,0,0,0-1.28,3.35,3.78,3.78,0,0,0,1.31,3.08,20.91,20.91,0,0,0,3.88,2.42q1.44.72,3,1.71a13.68,13.68,0,0,1,2.92,2.42,12.2,12.2,0,0,1,2.19,3.44,11.85,11.85,0,0,1,.87,4.75,15.53,15.53,0,0,1-1.08,6,12.15,12.15,0,0,1-2.91,4.31,12.36,12.36,0,0,1-4.23,2.57,14.49,14.49,0,0,1-5,.87,16.46,16.46,0,0,1-6.95-1.44,17.19,17.19,0,0,1-5.05-3.34l4.9-7.16a10.84,10.84,0,0,0,3.16,2.29,8.28,8.28,0,0,0,3.64.87,4.12,4.12,0,0,0,2.93-1.13,4.16,4.16,0,0,0,1.19-3.17,4.1,4.1,0,0,0-1.43-3.31,21.32,21.32,0,0,0-4.18-2.6,25.61,25.61,0,0,1-3.25-1.85,12,12,0,0,1-2.69-2.45,11,11,0,0,1-1.82-3.34,13.94,13.94,0,0,1-.66-4.54,14.43,14.43,0,0,1,1.17-6.06,11.8,11.8,0,0,1,3-4.14,12.58,12.58,0,0,1,4.18-2.39,14.33,14.33,0,0,1,4.63-.78,16.25,16.25,0,0,1,6.21,1.13,13,13,0,0,1,4.59,3.08Z"/><path class="cls-2" d="M613.84,246.19V203.93h20.42v8.41H623v8.3h10.38v7.88H623v9.07h12v8.6Z"/><path class="cls-2" d="M661,246.19l-1.73-7.7h-9.49l-1.73,7.7H638.5l10.27-42.26h12L671,246.19Zm-6.33-33.07h-.24l-3.58,18h7.23Z"/><path class="cls-2" d="M693,246.19l-5.65-16.83h-2.8v16.83h-9.19V203.93h13.52q6.14,0,9.53,3.19t3.39,9.52a14.93,14.93,0,0,1-.53,4.18,11.51,11.51,0,0,1-1.4,3.16,8.82,8.82,0,0,1-1.93,2.15,7.54,7.54,0,0,1-2.09,1.2l7.21,18.86Zm-.57-29a6.74,6.74,0,0,0-.44-2.63,4.39,4.39,0,0,0-1.17-1.61,3.91,3.91,0,0,0-1.58-.81,7.25,7.25,0,0,0-1.7-.21h-3v10.69h2.81a5.38,5.38,0,0,0,3.55-1.28A5.13,5.13,0,0,0,692.42,217.18Z"/><path class="cls-2" d="M729.72,245.68a14,14,0,0,1-7.16,1.65,13.76,13.76,0,0,1-6.72-1.65,15.43,15.43,0,0,1-5.16-4.59,22.59,22.59,0,0,1-3.35-7.05,32.14,32.14,0,0,1-1.19-9,32.77,32.77,0,0,1,1.19-9.08,22.22,22.22,0,0,1,3.35-7,15.39,15.39,0,0,1,5.16-4.54,14.08,14.08,0,0,1,6.72-1.61,14.88,14.88,0,0,1,7.07,1.52,14.08,14.08,0,0,1,4.57,3.79L729.06,215a8.88,8.88,0,0,0-2.41-2.27,6.3,6.3,0,0,0-3.38-.84,5.47,5.47,0,0,0-3.31,1,8.41,8.41,0,0,0-2.39,2.78,14,14,0,0,0-1.46,4.17,26.63,26.63,0,0,0-.48,5.17,26,26,0,0,0,.48,5.13,14.49,14.49,0,0,0,1.46,4.18,8.28,8.28,0,0,0,2.42,2.81,5.66,5.66,0,0,0,3.34,1,6,6,0,0,0,3.35-.95,7.75,7.75,0,0,0,2.26-2.27l5.32,6.62A14.24,14.24,0,0,1,729.72,245.68Z"/><path class="cls-2" d="M758.19,246.19V228.52h-9.84v17.67h-9.5V203.93h9.5v16h9.84v-16h9.5v42.26Z"/><polygon class="cls-3" points="310.91 0 286.52 26.96 335.31 26.96 310.91 0"/><polygon class="cls-3" points="310.91 37.75 286.52 64.71 335.31 64.71 310.91 37.75"/></g></g></svg>